# xmcd
#
# Track frame offsets:
#	150
#	21432
#	43235
#	63914
#	81550
#	104598
#	120273
#	137633
#	157830
#	175145
#	196071
#	214720
#	235428
#	252815
#	270461
#
# Disc length: 3919 seconds
#
# Revision: 0
# Processed by: cddbd v1.4PL0 Copyright (c) Steve Scherf et al.
# Submitted via: EasyCDDAExtractor 4.6.0.1
#
DISCID=cd0f4d0f
DTITLE=Ricky Martin - Sound Loaded
DYEAR=1900
DGENRE=Blues
TTITLE0=She Bangs
TTITLE1=Saint Tropez
TTITLE2=Come To Me
TTITLE3=Loaded
TTITLE4=Nobody Wonts To Be Lonely
TTITLE5=Amor
TTITLE6=Jezabet
TTITLE7=The Touch
TTITLE8=One Night Man
TTITLE9=She Bangs (Spanish Version)
TTITLE10=Are You In It For Love
TTITLE11=Ven A Me (Come To Me)
TTITLE12=If You Ever Saw Her
TTITLE13=Dame Màs (Loaded)
TTITLE14=Cambia La Piel
EXTD=ID3G:   0
EXTT0=
EXTT1=
EXTT2=
EXTT3=
EXTT4=
EXTT5=
EXTT6=
EXTT7=
EXTT8=
EXTT9=
EXTT10=
EXTT11=
EXTT12=
EXTT13=
EXTT14=
PLAYORDER=
